<svg xmlns="http://www.w3.org/2000/svg" viewBox="0 0 102.1 39"><path fill="#FFF" d="M5.2 9h91.5v21.4H5.2V9z"/><path fill="#CF202A" d="M95.7 0c-2 0-19.2 2-44.7 2C25.4 2 8.4 0 6.4 0 3.3 0 0 2 0 5.5v28C0 36.9 3.2 39 6.4 39c1.9 0 19.2-2 44.6-2 25.6 0 42.7 2 44.6 2 3.2 0 6.4-2 6.4-5.5v-28C102.1 2 98.9 0 95.7 0z"/><path fill="#FFF" d="M8.4 22.9h2.1v.6c0 .7 1 1.1 2.1 1.1 1 0 1.8-.4 1.8-1.1 0-.9-1-1.1-2.4-1.6-1.5-.5-3.2-1.2-3.2-3.2 0-2.2 2.1-2.9 4-2.9 1.5 0 3.7.6 3.7 2.1v1.3h-2.1v-.6c0-.5-.6-.9-1.6-.9-.8 0-1.6.3-1.6 1 0 .9 1 1.2 2.2 1.6 1.6.5 3.4 1.1 3.4 3.1 0 2.1-1.9 3.1-4.3 3.1-1.9 0-4.1-.8-4.1-2.5v-1.1zM23.2 15.8c2.9 0 4.5 2.2 4.5 4.8 0 .3-.1.8-.1.8h-7.2c.2 1.9 1.6 3 3.2 3 1.7 0 3-1.1 3-1.1l1 1.7s-1.6 1.4-4.1 1.4C20.1 26.4 18 24 18 21c0-3 2.1-5.2 5.2-5.2m2 4.3c-.1-1.5-1-2.3-2.1-2.3-1.3 0-2.3.9-2.6 2.3h4.7zM34.6 20h.6v-.4c0-1.4-.8-1.9-1.9-1.9-1.6 0-2.9 1-2.9 1l-.9-1.7s1.6-1.3 4-1.3c2.7 0 4.2 1.4 4.2 4V24c0 .3.2.4.4.4h1v1.8h-2.4c-.9 0-1.3-.5-1.3-1.1V25c0-.3.1-.6.1-.6s-.9 2-3.3 2c-1.8 0-3.4-1-3.4-3.1 0-3 4.1-3.3 5.8-3.3m-1.8 4.7c1.5 0 2.5-1.6 2.5-2.9v-.4h-.5c-1 0-3.6.2-3.6 1.8 0 .9.6 1.5 1.6 1.5M40 24.5h1.5v-6.1c0-.3-.2-.4-.4-.4h-1.2v-1.8h2.6c.9 0 1.3.4 1.3 1.1v1c.5-1.1 1.8-2.3 3.5-2.3 1.5 0 2.5.7 2.9 2.2.6-1.2 1.9-2.2 3.6-2.2 2.1 0 3.3 1.2 3.3 3.9v4.7h1.5v1.8h-3.9v-6.1c0-1.2-.2-2.1-1.5-2.1-1.8 0-2.7 1.8-2.7 3.7v2.7H52v1.8h-3.9v-6.1c0-1.1-.2-2.1-1.4-2.1C44.8 18 44 20 44 21.8v2.6h1.5v1.8H40v-1.7zM60 13.9h-1.6V12h4v11c0 .9.2 1.4 1.1 1.4h.5v2s-.4.1-.9.1c-1.6 0-3-.6-3-3.3v-9.3zM70 15.8c2.9 0 4.5 2.2 4.5 4.8 0 .3-.1.8-.1.8h-7.2c.2 1.9 1.6 3 3.2 3 1.7 0 3-1.1 3-1.1l1 1.7s-1.6 1.4-4.1 1.4c-3.4 0-5.5-2.4-5.5-5.4 0-3 2.1-5.2 5.2-5.2m2 4.3c-.1-1.5-1-2.3-2.1-2.3-1.3 0-2.3.9-2.6 2.3H72zM75.8 22.9h2.1v.6c0 .7 1 1.1 2.1 1.1 1 0 1.8-.4 1.8-1.1 0-.9-1-1.1-2.4-1.6-1.5-.5-3.2-1.2-3.2-3.2 0-2.2 2.1-2.9 4-2.9 1.5 0 3.7.6 3.7 2.1v1.3h-2.1v-.6c0-.5-.6-.9-1.6-.9-.8 0-1.6.3-1.6 1 0 .9 1 1.2 2.2 1.6 1.6.5 3.4 1.1 3.4 3.1 0 2.1-1.9 3.1-4.3 3.1-1.9 0-4.1-.8-4.1-2.5v-1.1zM85.4 22.9h2.1v.6c0 .7 1 1.1 2.1 1.1 1 0 1.8-.4 1.8-1.1 0-.9-1-1.1-2.4-1.6-1.5-.5-3.2-1.2-3.2-3.2 0-2.2 2.1-2.9 4-2.9 1.5 0 3.7.6 3.7 2.1v1.3h-2.1v-.6c0-.5-.6-.9-1.6-.9-.8 0-1.6.3-1.6 1 0 .9 1 1.2 2.2 1.6 1.6.5 3.4 1.1 3.4 3.1 0 2.1-1.9 3.1-4.3 3.1-1.9 0-4.1-.8-4.1-2.5v-1.1z"/><path fill="#CF202A" d="M31.2 23.5c0 .7.4 1.3 1.5 1.3 1.5 0 2.6-1.5 2.6-2.9v-.3h-.4c-1.2.1-3.7.2-3.7 1.9zm-8.1-5.6c-1.3 0-2.4.9-2.6 2.4h4.6c0-1.6-.9-2.4-2-2.4zm46.7 0c-1.3 0-2.4.9-2.6 2.4h4.6c.1-1.6-.7-2.4-2-2.4z"/></svg>