<svg xmlns="http://www.w3.org/2000/svg" viewBox="0 0 583.74 128.96"><defs><style>.cls-1{fill:#02c39a;}.cls-2{fill:#003459;}.cls-3{fill:#fce38a;}</style></defs><title>Asset 2</title><g id="Layer_2" data-name="Layer 2"><g id="Layer_1-2" data-name="Layer 1"><rect class="cls-1" x="4.08" y="1.74" width="579.66" height="125.46"/><rect class="cls-2" x="4.08" y="1.74" width="579.66" height="90.66"/><path class="cls-3" d="M69.51,47.88q0,21.21-9.14,33.71T35.47,94.08A39.17,39.17,0,0,1,17.1,89.88,31.46,31.46,0,0,1,4.53,78.31v49H0V1.68H4.53V17.86A33.27,33.27,0,0,1,17.19,4.61,35.49,35.49,0,0,1,35.3,0Q51.23,0,60.37,12.2t9.14,34.25ZM64.9,46.12q0-19.54-7.76-30.56t-21.76-11Q24,4.53,16,10.44t-11.49,17V69.85A28.79,28.79,0,0,0,16.06,84.39q8,5.16,19.49,5.16,13.92,0,21.63-11.07T64.9,46.12Z"/><path class="cls-3" d="M152.77,92.4q-1.68-5.79-1.68-16.6a36.38,36.38,0,0,1-14.67,13.5,45.4,45.4,0,0,1-21,4.78q-12.58,0-20.25-6.83T87.45,69.43q0-12.49,11.28-20t30-7.67h22.39V28.51q0-11.4-7.17-17.69t-20.5-6.29q-12.41,0-20.71,6.37t-8.3,15.76l-4.53-.17q0-11.07,9.73-18.78T123.42,0q14.67,0,23.31,7.34T155.62,28V71.35q0,14.93,2.35,20.29v.75Zm-37.4-2.85q12.74,0,21.93-5.7a35.31,35.31,0,0,0,13.79-16V46.28h-21q-19.45,0-29.77,7.71Q92,60.29,92,69.68A18,18,0,0,0,98.6,83.76Q105.23,89.55,115.37,89.55Z"/><path class="cls-3" d="M224.79,5l-5.87-.5A26.85,26.85,0,0,0,199.56,12q-7.8,7.5-10.23,21V92.4H184.8V1.68h4.53V20.54a33.39,33.39,0,0,1,11.07-15Q207.77,0,218.92,0a18,18,0,0,1,6.37.94Z"/><path class="cls-3" d="M297.49,92.4q-1.68-5.79-1.68-16.6a36.38,36.38,0,0,1-14.67,13.5,45.4,45.4,0,0,1-21,4.78q-12.58,0-20.25-6.83t-7.67-17.82q0-12.49,11.28-20t30-7.67h22.39V28.51q0-11.4-7.17-17.69t-20.5-6.29q-12.41,0-20.71,6.37t-8.3,15.76l-4.53-.17q0-11.07,9.73-18.78T268.14,0q14.67,0,23.31,7.34T300.34,28V71.35q0,14.93,2.35,20.29v.75Zm-37.4-2.85q12.74,0,21.93-5.7a35.31,35.31,0,0,0,13.79-16V46.28h-21q-19.45,0-29.77,7.71-8.39,6.29-8.38,15.68a18,18,0,0,0,6.62,14.09Q249.95,89.55,260.09,89.55Z"/><path class="cls-3" d="M325.24,46.12q0-21.71,9.14-33.92T359.45,0a34.79,34.79,0,0,1,18,4.65,33.82,33.82,0,0,1,12.66,13.62V1.68h4.61V90.81q0,17.94-9.22,28T360.46,129a35.69,35.69,0,0,1-16.73-4,37,37,0,0,1-13-11.35l3.19-3a39.94,39.94,0,0,0,11.57,10.24,29.51,29.51,0,0,0,14.76,3.55q14,0,21.8-8.49t8-24V78.06a31.66,31.66,0,0,1-12.7,11.86,38.86,38.86,0,0,1-18.15,4.15q-15.76,0-24.9-12.49t-9.14-34.29Zm4.61,1.76q0,19.45,7.71,30.56T359.2,89.55q11.49,0,19.54-5.32a28.66,28.66,0,0,0,11.4-15V28.09Q382.76,4.53,359.37,4.53q-14,0-21.76,11T329.85,47.88Z"/><path class="cls-3" d="M416.8,45.28a53.12,53.12,0,0,1,5-23.35A38.36,38.36,0,0,1,435.88,5.79,37.54,37.54,0,0,1,456.46,0a37.33,37.33,0,0,1,34.59,21.55,52.72,52.72,0,0,1,5.16,23.23v4a53.45,53.45,0,0,1-4.95,23.39,38.16,38.16,0,0,1-14,16.1,37.55,37.55,0,0,1-20.58,5.79A37.54,37.54,0,0,1,421.92,72.4a52.6,52.6,0,0,1-5.12-23.1Zm4.53,3.52a47.69,47.69,0,0,0,4.49,20.75,35.34,35.34,0,0,0,12.49,14.72,32.51,32.51,0,0,0,18.32,5.28q15.51,0,25.28-11.66t9.77-30v-2.6a47.22,47.22,0,0,0-4.53-20.63,35.91,35.91,0,0,0-12.54-14.8,32.05,32.05,0,0,0-18.15-5.32,31.39,31.39,0,0,0-25.32,11.82q-9.81,11.82-9.81,29.77Z"/><path class="cls-3" d="M522.7,22.81A38,38,0,0,1,535.78,6.12,32.32,32.32,0,0,1,554.9,0q14.59,0,21.67,8.26t7.17,24.94V92.4h-4.53V33.09q-.08-14.57-6-21.57t-18.61-7a28.23,28.23,0,0,0-20.33,8.33q-8.6,8.34-11.61,21.49V92.4h-4.53V1.68h4.53Z"/></g></g></svg>